<?xml version="1.0" standalone="no"?>
<!DOCTYPE svg PUBLIC "-//W3C//DTD SVG 1.1//EN" "http://www.w3.org/Graphics/SVG/1.1/DTD/svg11.dtd" >
<svg>
<metadata>
Created by FontForge 20120731 at Wed Aug 10 11:25:46 2016
 By www
Copyright (c) Mark Simonson, 2005. All rights reserved.
</metadata>
<defs>
<font id="ProximaNovaAExtraCondensedW01-Th" horiz-adv-x="396" >
  <font-face 
    font-family="ProximaNovaAExtraCondensedW01-Th"
    font-weight="250"
    font-stretch="extra-condensed"
    units-per-em="1000"
    panose-1="2 0 5 6 3 0 0 2 0 4"
    ascent="800"
    descent="-200"
    x-height="483"
    cap-height="667"
    bbox="-101 -199 781 867"
    underline-thickness="50"
    underline-position="-125"
    unicode-range="U+000D-2212"
  />
<missing-glyph horiz-adv-x="495" 
d="M72 752h351v-842h-351v842zM103 722v-782h288v782h-288z" />
    <glyph glyph-name=".notdef" horiz-adv-x="495" 
d="M72 752h351v-842h-351v842zM103 722v-782h288v782h-288z" />
    <glyph glyph-name="glyph1" horiz-adv-x="0" 
 />
    <glyph glyph-name="glyph1" horiz-adv-x="0" 
 />
    <glyph glyph-name="uni000D" unicode="&#xd;" horiz-adv-x="180" 
 />
    <glyph glyph-name="space" unicode=" " horiz-adv-x="180" 
 />
    <glyph glyph-name="exclam" unicode="!" horiz-adv-x="208" 
d="M83 667h42l-11 -506h-20zM81 46.5q10 9.5 23 9.5t23 -9.5t10 -22.5t-9.5 -23t-23.5 -10q-13 0 -23 10t-10 23t10 22.5z" />
    <glyph glyph-name="quotedbl" unicode="&#x22;" horiz-adv-x="290" 
d="M69.5 544q-5.5 70 -7.5 107q0 11 8 18.5t18 7.5q11 0 18.5 -7.5t7.5 -18.5q-2 -37 -7.5 -107t-7.5 -101h-22q-2 31 -7.5 101zM183.5 544q-5.5 70 -7.5 107q0 11 7.5 18.5t18.5 7.5t18.5 -7.5t7.5 -18.5q-2 -37 -7.5 -107t-7.5 -101h-22q-2 31 -7.5 101z" />
    <glyph glyph-name="numbersign" unicode="#" horiz-adv-x="395" 
d="M204 191h-78l-44 -191h-33l45 191h-76l6 29h77l53 227h-77l5 29h78l44 191h33l-44 -191h77l44 191h32l-44 -191h75l-5 -29h-77l-53 -227h78l-6 -29h-79l-44 -191h-33zM186 447l-53 -227h76l54 227h-77z" />
    <glyph glyph-name="dollar" unicode="$" horiz-adv-x="304" 
d="M253.5 48.5q-26.5 -42.5 -71.5 -55.5v-93h-32v88q-76 0 -123 57l24 26q17 -25 43 -39t56 -14v317q-58 55 -81.5 99t-23.5 98q0 59 30 97.5t75 46.5v92h32v-90q52 -5 85 -41l-19 -25q-27 32 -66 35v-295q47 -50 72.5 -95.5t25.5 -109.5q0 -56 -26.5 -98.5zM95.5 456
q18.5 -33 54.5 -71v260q-31 -8 -52 -38t-21 -75q0 -43 18.5 -76zM230 71q18 32 18 76q0 48 -17.5 84.5t-48.5 70.5v-276q30 13 48 45z" />
    <glyph glyph-name="percent" unicode="%" horiz-adv-x="555" 
d="M67 631q31 46 82 46q52 0 82.5 -46t30.5 -118q0 -71 -30.5 -116.5t-82.5 -45.5q-51 0 -82 45.5t-31 116.5q0 72 31 118zM396 667h33l-270 -667h-32zM207.5 610.5q-21.5 39.5 -58.5 39.5t-58.5 -39.5t-21.5 -97.5q0 -57 21.5 -96t58.5 -39t58.5 39t21.5 96
q0 58 -21.5 97.5zM324 268q31 46 82 46t82 -46t31 -118q0 -71 -31 -116.5t-82 -45.5t-82 45.5t-31 116.5q0 72 31 118zM464.5 247.5q-21.5 39.5 -58.5 39.5t-58.5 -39.5t-21.5 -97.5q0 -57 21.5 -96t58.5 -39t58.5 39t21.5 96q0 58 -21.5 97.5z" />
    <glyph glyph-name="ampersand" unicode="&#x26;" horiz-adv-x="358" 
d="M306 0q-29 50 -46 82q-45 -94 -106 -94q-48 0 -77.5 44.5t-29.5 120.5q0 68 21.5 115t61.5 95q-34 94 -34 154q0 75 21.5 117.5t62.5 42.5q31 0 52.5 -33t21.5 -85q0 -44 -12 -78.5t-29 -58.5t-49 -62q20 -57 46 -112l46 -95q24 75 38 160l30 -11q-20 -111 -49 -186
q25 -43 70 -116h-39zM154 392q34 41 52 78.5t18 88.5q0 44 -13 66t-31 22q-25 0 -37 -30.5t-12 -99.5q0 -47 23 -125zM242 115q-34 64 -55 110q-30 66 -45 106q-28 -38 -44 -79.5t-16 -98.5q0 -67 20 -101t51 -34q50 0 89 97z" />
    <glyph glyph-name="quotesingle" unicode="'" horiz-adv-x="176" 
d="M69.5 544q-5.5 70 -7.5 107q0 11 8 18.5t18 7.5q11 0 18.5 -7.5t7.5 -18.5q-2 -37 -7.5 -107t-7.5 -101h-22q-2 31 -7.5 101z" />
    <glyph glyph-name="parenleft" unicode="(" horiz-adv-x="167" 
d="M47 243q0 236 85 442l18 -6q-34 -109 -51 -209t-17 -227q0 -126 17 -227t51 -208l-18 -7q-85 206 -85 442z" />
    <glyph glyph-name="parenright" unicode=")" horiz-adv-x="167" 
d="M68 470q-17 100 -51 209l18 6q85 -206 85 -442t-85 -442l-18 7q34 107 51 208t17 227q0 127 -17 227z" />
    <glyph glyph-name="asterisk" unicode="*" horiz-adv-x="288" 
d="M135 528l-100 -65l-15 26l106 54l-106 54l15 26l100 -65l-6 119h30l-6 -119l100 65l15 -26l-106 -54l106 -54l-15 -26l-100 65l6 -119h-30z" />
    <glyph glyph-name="plus" unicode="+" horiz-adv-x="374" 
d="M203 160h-32v162h-142v30h142v156h32v-156h142v-30h-142v-162z" />
    <glyph glyph-name="comma" unicode="," horiz-adv-x="208" 
d="M57 -100q24 18 38.5 43.5t14.5 48.5l-7 -1q-14 0 -23 9.5t-9 23.5q0 13 9 22.5t23 9.5q16 0 27 -13.5t11 -38.5q0 -36 -18.5 -70t-43.5 -52z" />
    <glyph glyph-name="hyphen" unicode="-" horiz-adv-x="230" 
d="M30 257h170v-30h-170v30z" />
    <glyph glyph-name="period" unicode="." horiz-adv-x="208" 
d="M81 46.5q10 9.5 23 9.5t23 -9.5t10 -22.5t-9.5 -23t-23.5 -10q-13 0 -23 10t-10 23t10 22.5z" />
    <glyph glyph-name="slash" unicode="/" horiz-adv-x="177" 
d="M147 687h30l-147 -707h-30z" />
    <glyph glyph-name="zero" unicode="0" horiz-adv-x="377" 
d="M189 677q80 0 107.5 -99.5t27.5 -244.5q0 -146 -27.5 -245.5t-107.5 -99.5q-136 0 -136 345q0 344 136 344zM270 557q-19 90 -81 90t-81.5 -90.5t-19.5 -223.5q0 -135 19 -225t82 -90q62 0 81 90.5t19 224.5t-19 224z" />
    <glyph glyph-name="one" unicode="1" horiz-adv-x="243" 
d="M139 621l-105 -115l-22 23l129 138h30v-667h-32v621z" />
    <glyph glyph-name="two" unicode="2" horiz-adv-x="348" 
d="M60 28q91 177 132.5 266t54.5 137.5t13 97.5q0 52 -23.5 85t-59.5 33q-33 0 -55.5 -22.5t-39.5 -69.5l-31 14q24 56 52 82t74 26q54 0 86 -41.5t32 -106.5q0 -47 -14 -98.5t-57 -144t-130 -256.5h201v-30h-235v28z" />
    <glyph glyph-name="three" unicode="3" horiz-adv-x="347" 
d="M67 116q17 -46 40 -72t57 -26q51 0 73 41t22 119q0 83 -29.5 117.5t-67.5 34.5q-28 0 -34 -1v32q8 -1 34 -1q40 0 65 36t25 103q0 148 -87 148q-34 0 -54.5 -23.5t-36.5 -66.5l-31 13q16 50 49.5 78.5t72.5 28.5q56 0 89.5 -43t33.5 -131q0 -55 -22 -99t-62 -59
q37 -9 63.5 -56t26.5 -112q0 -86 -31 -137.5t-99 -51.5q-45 0 -78 32.5t-50 82.5z" />
    <glyph glyph-name="four" unicode="4" horiz-adv-x="310" 
d="M211 195h-199v33l189 439h42v-442h55v-30h-55v-195h-32v195zM43 225h168v391z" />
    <glyph glyph-name="five" unicode="5" horiz-adv-x="348" 
d="M79 114q13 -49 35 -72.5t60 -23.5q43 0 67 53.5t24 126.5q0 92 -21.5 137t-61.5 45q-28 0 -48 -14.5t-44 -54.5l-27 16v340h214v-30h-182v-284q16 27 38 42t49 15q55 0 86.5 -54.5t31.5 -157.5q0 -54 -15.5 -102.5t-44 -78t-66.5 -29.5q-53 0 -79.5 28.5t-47.5 86.5z" />
    <glyph glyph-name="six" unicode="6" horiz-adv-x="350" 
d="M82 581q29 96 113 96q38 0 67 -25.5t43 -70.5l-28 -15q-13 41 -32 61t-50 20q-64 0 -85.5 -94t-21.5 -230v-19q14 44 39 73t61 29q53 0 86 -53.5t33 -156.5q0 -85 -29.5 -146.5t-93.5 -61.5q-78 0 -104.5 95.5t-26.5 249.5q0 152 29 248zM187 376q-36 0 -60 -38t-38 -92
q3 -228 95 -228q47 0 67.5 50.5t20.5 127.5q0 180 -85 180z" />
    <glyph glyph-name="seven" unicode="7" horiz-adv-x="278" 
d="M220 637h-196v30h230v-22l-142 -645h-33z" />
    <glyph glyph-name="eight" unicode="8" horiz-adv-x="348" 
d="M79.5 267.5q31.5 51.5 68.5 76.5q-34 24 -63.5 69t-29.5 103q0 77 33 119t86 42q54 0 86.5 -42t32.5 -119q0 -57 -29 -102.5t-63 -69.5q36 -26 67.5 -77t31.5 -112q0 -77 -33 -122t-93 -45q-61 0 -93.5 44.5t-32.5 121.5q0 62 31.5 113.5zM237 612q-21 35 -63 35t-63 -35
t-21 -96q0 -45 17 -79.5t37 -54t30 -23.5q10 4 30 23.5t37 54t17 79.5q0 61 -21 96zM247 242q-18 39 -40 62.5t-33 25.5q-11 -2 -33 -25.5t-40 -63t-18 -87.5q0 -64 25 -100t66 -36t66 36t25 101q0 48 -18 87z" />
    <glyph glyph-name="nine" unicode="9" horiz-adv-x="350" 
d="M73 100q13 -41 32 -61t50 -20q64 0 85.5 94t21.5 230v19q-14 -44 -39 -73t-61 -29q-53 0 -86 53.5t-33 156.5q0 85 29.5 146.5t93.5 61.5q78 0 104.5 -95.5t26.5 -249.5q0 -152 -29 -248t-113 -96q-38 0 -67 25.5t-43 70.5zM166 648q-47 0 -67.5 -50.5t-20.5 -127.5
q0 -180 85 -180q36 0 60 38t38 92q-3 228 -95 228z" />
    <glyph glyph-name="colon" unicode=":" horiz-adv-x="208" 
d="M81 480.5q10 9.5 23 9.5q14 0 23.5 -9.5t9.5 -23.5q0 -13 -10 -22.5t-23 -9.5t-23 9.5t-10 22.5q0 14 10 23.5zM81 46.5q10 9.5 23 9.5t23 -9.5t10 -22.5t-9.5 -23t-23.5 -10q-13 0 -23 10t-10 23t10 22.5z" />
    <glyph glyph-name="semicolon" unicode=";" horiz-adv-x="208" 
d="M81 434.5q-10 9.5 -10 22.5q0 14 10 23.5t23 9.5q14 0 23.5 -9.5t9.5 -23.5q0 -13 -10 -22.5t-23 -9.5t-23 9.5zM57 -100q24 18 38.5 43.5t14.5 48.5l-7 -1q-14 0 -23 9.5t-9 23.5q0 13 9 22.5t23 9.5q16 0 27 -14t11 -39q0 -36 -18 -69.5t-44 -51.5z" />
    <glyph glyph-name="less" unicode="&#x3c;" horiz-adv-x="374" 
d="M29 345l316 158v-36l-275 -133l275 -132v-36l-316 158v21z" />
    <glyph glyph-name="equal" unicode="=" horiz-adv-x="374" 
d="M29 448h316v-30h-316v30zM29 250h316v-30h-316v30z" />
    <glyph glyph-name="greater" unicode="&#x3e;" horiz-adv-x="374" 
d="M29 202l275 132l-275 133v36l316 -158v-21l-316 -158v36z" />
    <glyph glyph-name="question" unicode="?" horiz-adv-x="302" 
d="M134.5 320.5q14.5 29.5 43.5 68.5q30 40 45 72t15 78q0 41 -26 75t-67 34q-24 0 -41.5 -8.5t-36.5 -27.5l-19 25q18 21 44 31t53 10q34 0 63 -19t45.5 -50.5t16.5 -69.5q0 -51 -16.5 -85.5t-47.5 -77.5q-28 -37 -41 -64t-13 -63q0 -17 6.5 -33.5t16.5 -26.5l-27 -20
q-28 35 -28 80q0 42 14.5 71.5zM132 46.5q10 9.5 23 9.5t23 -9.5t10 -22.5t-9.5 -23t-23.5 -10q-13 0 -23 10t-10 23t10 22.5z" />
    <glyph glyph-name="at" unicode="@" horiz-adv-x="569" 
d="M78.5 420q43.5 98 116 158.5t153.5 60.5q85 0 135.5 -65t50.5 -182q0 -86 -20 -156.5t-51 -110.5t-61 -40q-31 0 -48 20.5t-17 51.5v6q-47 -78 -103 -78q-36 0 -62 28.5t-26 90.5q0 69 22.5 138t63 113.5t91.5 44.5q28 0 46.5 -22t24.5 -56l12 60h30l-63 -299
q-3 -15 -3 -22q-1 -29 6 -39t24 -10q18 0 43.5 33.5t43.5 97.5t18 149q0 105 -43.5 161t-113.5 56q-73 0 -137.5 -57t-103.5 -148.5t-39 -187.5q0 -80 25.5 -138t69 -88.5t97.5 -30.5q37 0 68 15t60 42l14 -23q-33 -30 -70 -46.5t-76 -16.5q-64 0 -114 35t-78.5 99.5
t-28.5 151.5q0 106 43.5 204zM386 390q-6 35 -21.5 59t-41.5 24q-43 0 -76 -43t-50.5 -106t-17.5 -120q0 -92 55 -92q34 0 58.5 25t53.5 70z" />
    <glyph glyph-name="A" unicode="A" horiz-adv-x="312" 
d="M235 179h-158l-32 -179h-33l125 667h38l125 -667h-33zM82 209h148l-74 411z" />
    <glyph glyph-name="B" unicode="B" horiz-adv-x="360" 
d="M72 667h96q60 0 95 -44.5t35 -125.5q0 -120 -78 -153q38 -7 62.5 -55.5t24.5 -108.5q0 -87 -34 -133.5t-101 -46.5h-100v667zM168 358q95 0 95 139q0 140 -95 140h-64v-279h64zM172 30q53 0 76.5 38.5t23.5 110.5q0 64 -24 106.5t-76 42.5h-68v-298h68z" />
    <glyph glyph-name="C" unicode="C" horiz-adv-x="357" 
d="M87.5 82.5q-34.5 94.5 -34.5 250.5t34.5 250.5t110.5 94.5q45 0 71 -28t42 -75l-30 -12q-15 43 -33 64t-50 21q-56 0 -83 -87t-27 -228t27 -228t83 -87q35 0 54 27t32 78l30 -12q-29 -123 -116 -123q-76 0 -110.5 94.5z" />
    <glyph glyph-name="D" unicode="D" horiz-adv-x="386" 
d="M72 667h93q86 0 127 -90t41 -244q0 -155 -41 -244t-127 -89h-93v667zM165 30q71 0 102 82t31 221q0 138 -31.5 221t-101.5 83h-61v-607h61z" />
    <glyph glyph-name="E" unicode="E" horiz-adv-x="330" 
d="M72 667h210v-30h-178v-279h171v-30h-171v-298h178v-30h-210v667z" />
    <glyph glyph-name="F" unicode="F" horiz-adv-x="330" 
d="M72 667h210v-30h-178v-279h171v-30h-171v-328h-32v667z" />
    <glyph glyph-name="G" unicode="G" horiz-adv-x="375" 
d="M88.5 586q35.5 92 109.5 92q45 0 71 -28t42 -75l-30 -12q-15 43 -33 64t-50 21q-58 0 -84 -86.5t-26 -228.5q0 -141 26 -228t84 -87q53 0 76 75.5t23 196.5h-119v30h155q0 -167 -31 -249.5t-104 -82.5q-74 0 -109.5 92.5t-35.5 252.5q0 161 35.5 253z" />
    <glyph glyph-name="H" unicode="H" horiz-adv-x="395" 
d="M291 328h-187v-328h-32v667h32v-309h187v309h32v-667h-32v328z" />
    <glyph glyph-name="I" unicode="I" horiz-adv-x="176" 
d="M72 667h32v-667h-32v667z" />
    <glyph glyph-name="J" unicode="J" horiz-adv-x="298" 
d="M30 65q32 -47 79 -47q42 0 63.5 24.5t21.5 78.5v546h32v-546q0 -68 -31 -100.5t-86 -32.5q-31 0 -56 12.5t-47 41.5z" />
    <glyph glyph-name="K" unicode="K" horiz-adv-x="372" 
d="M151 319l-47 -88v-231h-32v667h32v-380l198 380h39l-174 -319l187 -348h-39z" />
    <glyph glyph-name="L" unicode="L" horiz-adv-x="306" 
d="M72 667h32v-637h178v-30h-210v667z" />
    <glyph glyph-name="M" unicode="M" horiz-adv-x="508" 
d="M404 609l-141 -609h-18l-141 609v-609h-32v667h52l130 -557l131 557h51v-667h-32v609z" />
    <glyph glyph-name="N" unicode="N" horiz-adv-x="395" 
d="M104 575v-575h-32v667h32l187 -569v569h32v-667h-32z" />
    <glyph glyph-name="O" unicode="O" 
d="M87 582.5q34 95.5 111 95.5t111 -95.5t34 -249.5t-34 -249.5t-111 -95.5t-111 95.5t-34 249.5t34 249.5zM281.5 560q-26.5 88 -83.5 88t-83.5 -88t-26.5 -227q0 -138 26.5 -226.5t83.5 -88.5t83.5 88.5t26.5 226.5q0 139 -26.5 227z" />
    <glyph glyph-name="P" unicode="P" horiz-adv-x="341" 
d="M72 667h100q67 0 101 -53.5t34 -135.5t-34 -135.5t-101 -53.5h-68v-289h-32v667zM246.5 593.5q-25.5 43.5 -75.5 43.5h-67v-318h67q50 0 75.5 43.5t25.5 115.5t-25.5 115.5z" />
    <glyph glyph-name="Q" unicode="Q" 
d="M281 32l21 -55l-29 -12l-16 42q-27 -19 -59 -19q-77 0 -111 95.5t-34 249.5t34 249.5t111 95.5t111 -95.5t34 -249.5q0 -220 -62 -301zM245 39l-61 161l30 12l53 -142q41 79 41 263q0 139 -26.5 227t-83.5 88t-83.5 -88t-26.5 -227q0 -138 26.5 -226.5t83.5 -88.5
q27 0 47 21z" />
    <glyph glyph-name="R" unicode="R" horiz-adv-x="366" 
d="M178 289h-74v-289h-32v667h100q61 0 98 -50t37 -139q0 -83 -29 -128t-69 -56l104 -294h-36zM246.5 593.5q-25.5 43.5 -75.5 43.5h-67v-318h67q50 0 75.5 43.5t25.5 115.5t-25.5 115.5z" />
    <glyph glyph-name="S" unicode="S" horiz-adv-x="319" 
d="M51 71q16 -24 42 -38.5t52 -14.5q43 0 73 35.5t30 93.5q0 42 -13.5 75.5t-34 58.5t-53.5 57q-34 34 -54 58.5t-34 58.5t-14 77q0 44 17.5 77t46 51t61.5 18q59 0 97 -41l-19 -25q-32 36 -78 36q-38 0 -65.5 -32t-27.5 -84q0 -49 23 -84.5t70 -83.5q36 -38 57.5 -65
t37 -65.5t15.5 -86.5q0 -68 -37.5 -113.5t-97.5 -45.5q-34 0 -64.5 15t-53.5 42z" />
    <glyph glyph-name="T" unicode="T" horiz-adv-x="287" 
d="M127 637h-109v30h251v-30h-110v-637h-32v637z" />
    <glyph glyph-name="U" unicode="U" 
d="M72 667h32v-513q0 -136 94 -136t94 136v513h32v-513q0 -166 -126 -166t-126 166v513z" />
    <glyph glyph-name="V" unicode="V" horiz-adv-x="312" 
d="M12 667h33l111 -620l111 620h33l-125 -667h-38z" />
    <glyph glyph-name="W" unicode="W" horiz-adv-x="490" 
d="M245 587l-83 -587h-38l-100 667h35l84 -604l85 604h34l85 -604l84 604h35l-100 -667h-38z" />
    <glyph glyph-name="X" unicode="X" horiz-adv-x="308" 
d="M154 302l-110 -302h-36l128 338l-121 329h37l102 -291l102 291h37l-121 -328l128 -339h-36z" />
    <glyph glyph-name="Y" unicode="Y" horiz-adv-x="322" 
d="M145 289l-143 378h36l123 -339l125 339h34l-143 -378v-289h-32v289z" />
    <glyph glyph-name="Z" unicode="Z" horiz-adv-x="309" 
d="M36 31l197 606h-197v30h230v-30l-198 -607h205v-30h-237v31z" />
    <glyph glyph-name="bracketleft" unicode="[" horiz-adv-x="162" 
d="M34 678h111v-30h-81v-808h81v-30h-111v868z" />
    <glyph glyph-name="backslash" unicode="\" horiz-adv-x="177" 
d="M31 687l147 -707h-30l-147 707h30z" />
    <glyph glyph-name="bracketright" unicode="]" horiz-adv-x="162" 
d="M17 -160h81v808h-81v30h111v-868h-111v30z" />
    <glyph glyph-name="asciicircum" unicode="^" horiz-adv-x="324" 
d="M162 636l-111 -303h-32l130 334h26l130 -334h-32z" />
    <glyph glyph-name="underscore" unicode="_" horiz-adv-x="279" 
d="M-3 -40h285v-30h-285v30z" />
    <glyph glyph-name="grave" unicode="`" horiz-adv-x="119" 
d="M0 700h41l78 -144h-24z" />
    <glyph glyph-name="a" unicode="a" horiz-adv-x="351" 
d="M256 70q-15 -37 -39.5 -59.5t-48.5 -22.5q-63 0 -92 69t-29 184q0 114 29.5 184t91.5 70q25 0 49.5 -21.5t38.5 -62.5v72h30v-483h-30v70zM256 366q-9 40 -34.5 71t-53.5 31q-48 0 -68 -63.5t-20 -163.5q0 -226 88 -226q28 0 53.5 30t34.5 70v251z" />
    <glyph glyph-name="b" unicode="b" horiz-adv-x="351" 
d="M65 667h30v-256q14 41 38.5 62.5t49.5 21.5q62 0 91.5 -70t29.5 -184q0 -115 -29 -184t-92 -69q-24 0 -48.5 22.5t-39.5 59.5v-70h-30v667zM129.5 45q25.5 -30 53.5 -30q88 0 88 226q0 100 -20 163.5t-68 63.5q-27 0 -53 -31t-35 -71v-251q9 -40 34.5 -70z" />
    <glyph glyph-name="c" unicode="c" horiz-adv-x="294" 
d="M81.5 424q34.5 71 101.5 71q28 0 46 -11t38 -34l-21 -21q-29 39 -64 39q-54 0 -78 -65t-24 -161t24 -161.5t78 -65.5q18 0 33.5 9t30.5 30l21 -21q-18 -24 -36.5 -34.5t-47.5 -10.5q-67 0 -101.5 71.5t-34.5 182.5t34.5 182z" />
    <glyph glyph-name="d" unicode="d" horiz-adv-x="351" 
d="M256 70q-15 -37 -39.5 -59.5t-48.5 -22.5q-63 0 -92 69t-29 184q0 114 29.5 184t91.5 70q25 0 49.5 -21.5t38.5 -62.5v256h30v-667h-30v70zM256 366q-9 40 -34.5 71t-53.5 31q-48 0 -68 -63.5t-20 -163.5q0 -226 88 -226q28 0 53.5 30t34.5 70v251z" />
    <glyph glyph-name="e" unicode="e" horiz-adv-x="346" 
d="M78.5 425q31.5 70 97.5 70q68 0 98.5 -70.5t30.5 -182.5v-10h-225q0 -100 29.5 -158.5t83.5 -58.5q22 0 43 18t36 50l28 -14q-40 -81 -107 -81q-75 0 -110.5 69.5t-35.5 184.5q0 113 31.5 183zM102 403.5q-22 -64.5 -22 -144.5h192q0 85 -22 147t-74 62t-74 -64.5z" />
    <glyph glyph-name="f" unicode="f" horiz-adv-x="202" 
d="M78 456h-50v27h50v107q0 38 21.5 62.5t52.5 24.5q21 0 37 -13l-14 -22q-10 8 -23 8q-20 0 -32 -16t-12 -44v-107h70v-27h-70v-456h-30v456z" />
    <glyph glyph-name="g" unicode="g" horiz-adv-x="351" 
d="M74 -123q16 -20 40.5 -33t49.5 -13q44 0 68 31t24 95v113q-15 -37 -39.5 -60.5t-48.5 -23.5q-62 0 -91.5 69.5t-29.5 184.5q0 114 29.5 184.5t91.5 70.5q25 0 49.5 -21.5t38.5 -62.5v72h30v-526q0 -78 -32 -115.5t-90 -37.5q-66 0 -110 47zM256 366q-9 40 -34.5 71
t-53.5 31q-48 0 -68 -63.5t-20 -164.5q0 -100 20 -163.5t68 -63.5q28 0 53.5 31t34.5 71v251z" />
    <glyph glyph-name="h" unicode="h" horiz-adv-x="342" 
d="M247 394q0 74 -53 74q-30 0 -57 -27.5t-42 -66.5v-374h-30v667h30v-256q18 37 45 60.5t58 23.5q42 0 60.5 -23.5t18.5 -77.5v-394h-30v394z" />
    <glyph glyph-name="i" unicode="i" horiz-adv-x="160" 
d="M60 574.5q-9 8.5 -9 20.5t9 20.5t20 8.5q12 0 20.5 -8.5t8.5 -20.5t-8.5 -20.5t-20.5 -8.5q-11 0 -20 8.5zM65 483h30v-483h-30v483z" />
    <glyph glyph-name="j" unicode="j" horiz-adv-x="160" 
d="M60 574.5q-9 8.5 -9 20.5t9 20.5t20 8.5q12 0 20.5 -8.5t8.5 -20.5t-8.5 -20.5t-20.5 -8.5q-11 0 -20 8.5zM95 -119q0 -40 -17 -58.5t-45 -18.5q-16 0 -29 6l8 25q9 -4 20 -4q33 0 33 50v602h30v-602z" />
    <glyph glyph-name="k" unicode="k" horiz-adv-x="325" 
d="M161 242l-66 -110v-132h-30v667h30v-489l179 305h31l-128 -218l124 -265h-32z" />
    <glyph glyph-name="l" unicode="l" horiz-adv-x="186" 
d="M80.5 9.5q-15.5 21.5 -15.5 66.5v591h30v-591q0 -32 7.5 -46.5t26.5 -14.5q21 0 36 21l21 -18q-13 -15 -25.5 -22.5t-31.5 -7.5q-33 0 -48.5 21.5z" />
    <glyph glyph-name="m" unicode="m" horiz-adv-x="524" 
d="M429 394q0 74 -53 74q-30 0 -57.5 -27.5t-41.5 -66.5v-374h-30v394q0 74 -53 74q-30 0 -57 -27.5t-42 -66.5v-374h-30v483h30v-72q18 37 45 60.5t58 23.5q37 0 57.5 -22.5t20.5 -61.5q17 36 45 60t59 24q39 0 59 -24t20 -77v-394h-30v394z" />
    <glyph glyph-name="n" unicode="n" horiz-adv-x="342" 
d="M247 394q0 74 -53 74q-30 0 -57 -27.5t-42 -66.5v-374h-30v483h30v-72q18 37 45 60.5t58 23.5q41 0 60 -24.5t19 -76.5v-394h-30v394z" />
    <glyph glyph-name="o" unicode="o" horiz-adv-x="352" 
d="M77.5 59.5q-30.5 71.5 -30.5 182.5t30.5 182t98.5 71t98.5 -71t30.5 -182t-30.5 -182.5t-98.5 -71.5t-98.5 71.5zM250.5 80q21.5 65 21.5 162q0 96 -21.5 161t-74.5 65t-74.5 -65t-21.5 -161t21.5 -161.5t74.5 -65.5t74.5 65z" />
    <glyph glyph-name="p" unicode="p" horiz-adv-x="351" 
d="M65 -184v667h30v-70q15 37 39.5 59.5t48.5 22.5q63 0 92 -69t29 -184q0 -114 -29.5 -184t-91.5 -70q-25 0 -49.5 21.5t-38.5 62.5v-256h-30zM183 468q-28 0 -53.5 -30t-34.5 -70v-251q9 -40 35 -71t53 -31q48 0 68 63.5t20 163.5q0 226 -88 226z" />
    <glyph glyph-name="q" unicode="q" horiz-adv-x="351" 
d="M256 -184v256q-14 -41 -38.5 -62.5t-49.5 -21.5q-62 0 -91.5 70t-29.5 184q0 115 29 184t92 69q24 0 48.5 -22.5t39.5 -59.5v70h30v-667h-30zM256 368q-9 40 -34.5 70t-53.5 30q-88 0 -88 -226q0 -100 20 -163.5t68 -63.5q28 0 53.5 31t34.5 71v251z" />
    <glyph glyph-name="r" unicode="r" horiz-adv-x="227" 
d="M65 483h30v-85q20 47 46.5 70.5t68.5 23.5v-36q-5 1 -15 1q-33 0 -59 -27.5t-41 -68.5v-361h-30v483z" />
    <glyph glyph-name="s" unicode="s" horiz-adv-x="278" 
d="M50 68q18 -27 38.5 -40t48.5 -13q32 0 55.5 25t23.5 65q0 43 -20.5 71t-62.5 63q-30 25 -48 43.5t-30.5 45.5t-12.5 62q0 46 30.5 75.5t74.5 29.5q57 0 93 -51l-20 -20q-28 44 -73 44q-34 0 -54.5 -22.5t-20.5 -55.5q0 -40 20 -67t60 -60q31 -25 49.5 -44.5t31.5 -48
t13 -65.5q0 -52 -32 -84.5t-77 -32.5q-35 0 -61 13.5t-48 45.5z" />
    <glyph glyph-name="t" unicode="t" horiz-adv-x="212" 
d="M93.5 9.5q-15.5 21.5 -15.5 66.5v380h-52v27h52v132h30v-132h70v-27h-70v-380q0 -32 7.5 -46.5t26.5 -14.5q21 0 36 21l21 -18q-13 -15 -25.5 -22.5t-31.5 -7.5q-33 0 -48.5 21.5z" />
    <glyph glyph-name="u" unicode="u" horiz-adv-x="342" 
d="M247 70q-18 -37 -44 -59.5t-59 -22.5q-42 0 -60.5 23.5t-18.5 77.5v394h30v-394q0 -74 53 -74q31 0 58 26.5t41 65.5v376h30v-483h-30v70z" />
    <glyph glyph-name="v" unicode="v" horiz-adv-x="279" 
d="M16 483h33l90 -448l91 448h33l-107 -483h-35z" />
    <glyph glyph-name="w" unicode="w" horiz-adv-x="484" 
d="M242 440l-92 -440h-30l-100 483h33l82 -436l89 436h36l89 -436l82 436h33l-100 -483h-30z" />
    <glyph glyph-name="x" unicode="x" horiz-adv-x="286" 
d="M143 217l-90 -217h-33l106 245l-100 238h33l84 -209l84 209h33l-100 -238l106 -245h-33z" />
    <glyph glyph-name="y" unicode="y" horiz-adv-x="342" 
d="M74 -123q37 -46 90 -46q38 0 60.5 32.5t22.5 93.5v113q-18 -37 -44 -59.5t-59 -22.5q-42 0 -60.5 23.5t-18.5 77.5v394h30v-394q0 -74 53 -74q31 0 58 26.5t41 65.5v376h30v-526q0 -71 -30 -112t-84 -41q-30 0 -59.5 12t-49.5 35z" />
    <glyph glyph-name="z" unicode="z" horiz-adv-x="275" 
d="M41 27l158 429h-158v27h189v-27l-156 -429h160v-27h-193v27z" />
    <glyph glyph-name="braceleft" unicode="{" horiz-adv-x="187" 
d="M83 -164q-24 26 -24 67v254q0 30 -13.5 51t-38.5 21v30q25 0 38.5 21t13.5 51v254q0 41 24 67t55 26h32v-30h-32q-21 0 -35 -17.5t-14 -45.5v-254q0 -68 -45 -87q45 -19 45 -87v-254q0 -27 14 -45t35 -18h32v-30h-32q-31 0 -55 26z" />
    <glyph glyph-name="bar" unicode="|" horiz-adv-x="174" 
d="M72 687h30v-707h-30v707z" />
    <glyph glyph-name="braceright" unicode="}" horiz-adv-x="187" 
d="M49 -160q21 0 35 18t14 45v254q0 68 45 87q-45 19 -45 87v254q0 28 -14 45.5t-35 17.5h-32v30h32q31 0 55 -26t24 -67v-254q0 -30 13.5 -51t38.5 -21v-30q-25 0 -38.5 -21t-13.5 -51v-254q0 -41 -24 -67t-55 -26h-32v30h32z" />
    <glyph glyph-name="asciitilde" unicode="~" horiz-adv-x="376" 
d="M321.5 497q-19.5 -64 -71.5 -64q-34 0 -49 29.5t-27 85.5q-10 45 -19.5 66t-28.5 21q-22 0 -34.5 -22.5t-19 -63.5t-14.5 -118l-30 5q7 101 27 165t71 64q34 0 49 -29.5t27 -85.5q10 -45 19.5 -66.5t28.5 -21.5q22 0 34.5 22t19.5 63.5t14 119.5l30 -3
q-7 -103 -26.5 -167z" />
    <glyph glyph-name="uni00A0" unicode="&#xa0;" horiz-adv-x="180" 
 />
    <glyph glyph-name="exclamdown" unicode="&#xa1;" horiz-adv-x="208" 
d="M127.5 482.5q9.5 -9.5 9.5 -23.5q0 -13 -10 -22.5t-23 -9.5t-23 9.5t-10 22.5q0 14 10 23.5t23 9.5q14 0 23.5 -9.5zM114 322l11 -506h-42l11 506h20z" />
    <glyph glyph-name="cent" unicode="&#xa2;" horiz-adv-x="294" 
d="M246 54l21 -21q-16 -22 -32.5 -32.5t-39.5 -12.5v-88h-30v89q-58 10 -88 80t-30 173t30 172.5t88 79.5v71h30v-71q22 -2 38 -12.5t34 -31.5l-21 -21q-24 32 -51 38v-451q27 6 51 38zM100 91q20 -63 65 -74v449q-45 -10 -65 -73t-20 -151t20 -151z" />
    <glyph glyph-name="sterling" unicode="&#xa3;" horiz-adv-x="342" 
d="M324 32q-11 -18 -36 -31t-50 -13q-22 0 -35 6t-27 17q-12 9 -20.5 13t-20.5 4q-29 0 -72 -35l-19 29q44 30 70 79.5t26 101.5q0 29 -11 64h-99v30h85q-4 9 -14 27q-25 45 -37.5 81.5t-12.5 89.5q0 75 33.5 128.5t95.5 53.5q43 0 72.5 -26.5t42.5 -71.5l-25 -16
q-14 39 -34.5 61.5t-55.5 22.5q-24 0 -46 -18.5t-36 -53.5t-14 -82q0 -49 12 -82.5t35 -74.5q14 -26 20 -39h78v-30h-66q9 -34 9 -65q0 -43 -21 -87.5t-52 -71.5q19 11 39 11q16 0 28.5 -5t29.5 -15q15 -8 23.5 -12t19.5 -4q19 0 37 11.5t27 26.5z" />
    <glyph glyph-name="currency" unicode="&#xa4;" horiz-adv-x="348" 
d="M275 169l78 -77l-22 -22l-71 72q-33 -44 -86 -44q-55 0 -87 48l-70 -71l-22 22l77 76q-27 61 -27 160q0 101 28 161l-78 77l22 22l71 -72q32 46 86 46t86 -45l71 71l22 -22l-77 -76q27 -61 27 -162q0 -102 -28 -164zM248.5 190.5q21.5 57.5 21.5 142.5t-21.5 142
t-74.5 57t-74.5 -57.5t-21.5 -141.5q0 -85 21.5 -142.5t74.5 -57.5t74.5 57.5z" />
    <glyph glyph-name="yen" unicode="&#xa5;" horiz-adv-x="322" 
d="M188 319h114v-30h-125v-130h125v-30h-125v-129h-32v129h-126v30h126v130h-126v30h115l-132 348h36l123 -339l125 339h34z" />
    <glyph glyph-name="brokenbar" unicode="&#xa6;" horiz-adv-x="174" 
d="M72 687h30v-316h-30v316zM72 296h30v-316h-30v316z" />
    <glyph glyph-name="section" unicode="&#xa7;" horiz-adv-x="278" 
d="M228.5 110q17.5 -33 17.5 -74q0 -48 -30.5 -82.5t-78.5 -34.5q-36 0 -60 13.5t-49 45.5l22 21q14 -21 36 -37t51 -16q33 0 56 27t23 63q0 43 -20.5 71t-62.5 63q-45 36 -68 68t-23 83q0 36 22.5 67t65.5 37q-49 38 -68.5 72t-19.5 75q0 47 30.5 76t69.5 29q57 0 98 -51
l-22 -20q-19 26 -35.5 35t-40.5 9q-30 0 -50 -22.5t-20 -55.5q0 -40 20 -66.5t61 -60.5q31 -26 49 -45t31 -47.5t13 -65.5q0 -36 -18 -66t-55 -45q38 -33 55.5 -66zM90 374q-18 -24 -18 -53q0 -35 18.5 -64t61.5 -63q33 16 48.5 40t15.5 53q0 44 -18 70t-45 48
q-45 -7 -63 -31z" />
    <glyph glyph-name="dieresis" unicode="&#xa8;" horiz-adv-x="252" 
d="M45.5 578.5q-8.5 8.5 -8.5 19.5t8.5 19.5t19.5 8.5t19.5 -8.5t8.5 -19.5t-8.5 -19.5t-19.5 -8.5t-19.5 8.5zM167.5 578.5q-8.5 8.5 -8.5 19.5t8.5 19.5t19.5 8.5t19.5 -8.5t8.5 -19.5t-8.5 -19.5t-19.5 -8.5t-19.5 8.5z" />
    <glyph glyph-name="copyright" unicode="&#xa9;" horiz-adv-x="778" 
d="M216.5 34.5q-79.5 46.5 -126 126t-46.5 172.5t46.5 172.5t126 126t172.5 46.5t172.5 -46.5t126 -126t46.5 -172.5t-46.5 -172.5t-126 -126t-172.5 -46.5t-172.5 46.5zM229.5 609q-73.5 -43 -116.5 -116.5t-43 -159.5t43 -159.5t116.5 -116.5t159.5 -43t159.5 43
t116.5 116.5t43 159.5t-43 159.5t-116.5 116.5t-159.5 43t-159.5 -43zM390 118q-57 0 -105 28.5t-76 78t-28 108.5q0 61 28 110.5t76 77.5t105 28q88 0 143 -64l-20 -20q-19 26 -53 41.5t-70 15.5q-47 0 -88.5 -23.5t-66.5 -66.5t-25 -99q0 -53 25 -96t66.5 -67.5
t88.5 -24.5q36 0 70 16t53 42l20 -20q-56 -65 -143 -65z" />
    <glyph glyph-name="ordfeminine" unicode="&#xaa;" horiz-adv-x="261" 
d="M181 360q-23 -42 -65 -42q-38 0 -60.5 29t-22.5 76t22.5 75.5t60.5 28.5q19 0 36 -10t29 -31v63q0 38 -14 55t-41 17q-17 0 -32.5 -7.5t-33.5 -29.5l-15 23q38 41 84 41q45 0 62.5 -27t17.5 -86v-209h-28v34zM181 459q-18 46 -61 46q-28 0 -43 -23.5t-15 -58.5t15 -59
t43 -24q43 0 61 46v73z" />
    <glyph glyph-name="guillemotleft" unicode="&#xab;" horiz-adv-x="273" 
d="M30 243l90 177h33l-90 -177l90 -180h-33zM120 243l90 177h33l-90 -177l90 -180h-33z" />
    <glyph glyph-name="logicalnot" unicode="&#xac;" horiz-adv-x="374" 
d="M313 220v198h-284v30h316v-228h-32z" />
    <glyph glyph-name="uni00AD" unicode="&#xad;" horiz-adv-x="230" 
d="M30 257h170v-30h-170v30z" />
    <glyph glyph-name="registered" unicode="&#xae;" horiz-adv-x="494" 
d="M140.5 281.5q-48.5 28.5 -77 77t-28.5 106.5t28.5 106.5t77 77t106.5 28.5t106.5 -28.5t77 -77t28.5 -106.5t-28.5 -106.5t-77 -77t-106.5 -28.5t-106.5 28.5zM153.5 626q-42.5 -25 -67.5 -67.5t-25 -93.5q0 -50 25 -93t67.5 -68t93.5 -25t93.5 25t67.5 68t25 93
q0 51 -25 93.5t-67.5 67.5t-93.5 25t-93.5 -25zM243 439h-47v-96h-29v243h99q31 0 52.5 -20.5t21.5 -53.5q0 -25 -11.5 -41t-26.5 -23.5t-24 -7.5l65 -97h-37zM196 559v-92h70q16 0 30 13.5t14 31.5q0 20 -13.5 33.5t-30.5 13.5h-70z" />
    <glyph glyph-name="macron" unicode="&#xaf;" horiz-adv-x="240" 
d="M0 608h240v-27h-240v27z" />
    <glyph glyph-name="degree" unicode="&#xb0;" horiz-adv-x="273" 
d="M58 488q-32 32 -32 78t32 78.5t78 32.5t78.5 -32.5t32.5 -78.5t-32.5 -78t-78.5 -32t-78 32zM79.5 623q-23.5 -24 -23.5 -57t23.5 -56.5t56.5 -23.5t57 23.5t24 56.5t-24 57t-57 24t-56.5 -24z" />
    <glyph glyph-name="plusminus" unicode="&#xb1;" horiz-adv-x="374" 
d="M203 160h-32v162h-142v30h142v156h32v-156h142v-30h-142v-162zM29 90h316v-30h-316v30z" />
    <glyph glyph-name="uni00B2" unicode="&#xb2;" horiz-adv-x="240" 
d="M34 445q68 107 94.5 151.5t38.5 75t12 59.5q0 32 -16 51t-41 19q-46 0 -69 -54l-23 16q16 32 38 48t54 16q39 0 63.5 -26t24.5 -70q0 -30 -12.5 -62.5t-39.5 -78.5t-89 -143h142v-26h-177v24z" />
    <glyph glyph-name="uni00B3" unicode="&#xb3;" horiz-adv-x="240" 
d="M62 433q-24 19 -37 49l24 15q24 -57 69 -57q65 0 65 89q0 46 -20 66t-47 20q-20 0 -24 -1v27q5 -1 23 -1q28 0 46 20.5t18 58.5q0 41 -16 61.5t-44 20.5q-23 0 -38.5 -13.5t-27.5 -38.5l-24 15q14 29 38 46t52 17q40 0 65 -26.5t25 -78.5q0 -33 -16.5 -59.5t-42.5 -34.5
q25 -6 44.5 -33.5t19.5 -66.5q0 -51 -24 -82.5t-71 -31.5q-33 0 -57 19z" />
    <glyph glyph-name="acute" unicode="&#xb4;" horiz-adv-x="119" 
d="M0 556l78 144h41l-95 -144h-24z" />
    <glyph glyph-name="mu" unicode="&#xb5;" horiz-adv-x="349" 
d="M65 -184v667h30v-394q0 -37 15.5 -56.5t41.5 -19.5q30 0 55 27t40 67v376h30v-407q0 -32 7.5 -46.5t26.5 -14.5q8 0 14 1l3 -26q-8 -2 -17 -2q-32 0 -47 20t-17 62q-16 -37 -40 -59.5t-55 -22.5q-23 0 -35.5 7t-21.5 19v-198h-30z" />
    <glyph glyph-name="paragraph" unicode="&#xb6;" horiz-adv-x="449" 
d="M327 637h-98v-737h-30v423q-47 0 -86.5 23t-62.5 62.5t-23 86.5t23 86.5t62.5 62.5t86.5 23h158v-767h-30v737z" />
    <glyph glyph-name="periodcentered" unicode="&#xb7;" horiz-adv-x="208" 
d="M81 222q-10 10 -10 23t10 22.5t23 9.5t23 -9.5t10 -22.5t-9.5 -23t-23.5 -10q-13 0 -23 10z" />
    <glyph glyph-name="cedilla" unicode="&#xb8;" horiz-adv-x="151" 
d="M13 -133q16 -15 28 -21t29 -6q21 0 36.5 13.5t15.5 35.5q0 19 -9 29.5t-24 10.5q-10 0 -16.5 -3.5t-14.5 -11.5l-21 12l31 85h30l-27 -70q11 10 29 10q21 0 36 -17t15 -45q0 -32 -23.5 -54t-57.5 -22q-37 0 -70 28z" />
    <glyph glyph-name="uni00B9" unicode="&#xb9;" horiz-adv-x="190" 
d="M100 781l-62 -67l-18 19l83 88h27v-400h-30v360z" />
    <glyph glyph-name="ordmasculine" unicode="&#xba;" horiz-adv-x="272" 
d="M62.5 601q24.5 47 73.5 47t73.5 -47t24.5 -118t-24.5 -118t-73.5 -47t-73.5 47t-24.5 118t24.5 118zM188.5 582q-15.5 39 -52.5 39q-36 0 -52 -39.5t-16 -98.5t16 -99t52 -40q37 0 52.5 39.5t15.5 99.5t-15.5 99z" />
    <glyph glyph-name="guillemotright" unicode="&#xbb;" horiz-adv-x="273" 
d="M30 63l90 180l-90 177h33l90 -177l-90 -180h-33zM120 63l90 180l-90 177h33l90 -177l-90 -180h-33z" />
    <glyph glyph-name="onequarter" unicode="&#xbc;" horiz-adv-x="514" 
d="M103 0l269 667h33l-270 -667h-32zM458 0h-29v113h-135v27l127 260h37v-261h38v-26h-38v-113zM321 139h108v222zM100 627l-62 -67l-18 19l83 88h27v-400h-30v360z" />
    <glyph glyph-name="onehalf" unicode="&#xbd;" horiz-adv-x="544" 
d="M103 0l269 667h33l-270 -667h-32zM338 24q68 107 94.5 151.5t38.5 75t12 59.5q0 32 -16 51t-41 19q-46 0 -69 -54l-23 16q16 32 38 48t54 16q39 0 63.5 -26t24.5 -70q0 -30 -12.5 -62.5t-39.5 -78.5t-89 -143h142v-26h-177v24zM100 627l-62 -67l-18 19l83 88h27v-400h-30
v360z" />
    <glyph glyph-name="threequarters" unicode="&#xbe;" horiz-adv-x="550" 
d="M139 0l269 667h33l-270 -667h-32zM494 0h-29v113h-135v27l127 260h37v-261h38v-26h-38v-113zM357 139h108v222zM62 279q-24 19 -37 49l24 15q24 -57 69 -57q65 0 65 89q0 46 -20 66t-47 20q-20 0 -24 -1v27q5 -1 23 -1q28 0 46 20.5t18 58.5q0 41 -16 61.5t-44 20.5
q-23 0 -38.5 -13.5t-27.5 -38.5l-24 15q14 29 38 46t52 17q40 0 65 -26.5t25 -78.5q0 -33 -16.5 -59.5t-42.5 -34.5q25 -6 44.5 -33.5t19.5 -66.5q0 -51 -24 -82.5t-71 -31.5q-33 0 -57 19z" />
    <glyph glyph-name="questiondown" unicode="&#xbf;" horiz-adv-x="256" 
d="M170 436.5q-10 -9.5 -23 -9.5t-23 9.5t-10 22.5q0 14 10 23.5t23 9.5q14 0 23.5 -9.5t9.5 -23.5q0 -13 -10 -22.5zM167.5 159.5q-14.5 -29.5 -43.5 -68.5q-30 -40 -45 -72t-15 -78q0 -41 26 -75t67 -34q24 0 41.5 8.5t36.5 27.5l19 -25q-18 -21 -44 -31t-53 -10
q-34 0 -63 19t-45.5 50.5t-16.5 69.5q0 51 16.5 85.5t47.5 77.5q28 37 41 64t13 63q0 17 -6.5 33.5t-16.5 26.5l27 20q28 -35 28 -80q0 -42 -14.5 -71.5z" />
    <glyph glyph-name="Agrave" unicode="&#xc0;" horiz-adv-x="312" 
d="M67 867h41l78 -144h-24zM235 179h-158l-32 -179h-33l125 667h38l125 -667h-33zM82 209h148l-74 411z" />
    <glyph glyph-name="Aacute" unicode="&#xc1;" horiz-adv-x="312" 
d="M126 723l78 144h41l-95 -144h-24zM235 179h-158l-32 -179h-33l125 667h38l125 -667h-33zM82 209h148l-74 411z" />
    <glyph glyph-name="Acircumflex" unicode="&#xc2;" horiz-adv-x="312" 
d="M155 839l-63 -116h-23l68 144h36l71 -144h-23zM235 179h-158l-32 -179h-33l125 667h38l125 -667h-33zM82 209h148l-74 411z" />
    <glyph glyph-name="Atilde" unicode="&#xc3;" horiz-adv-x="312" 
d="M132.5 822.5q-5.5 11.5 -16.5 11.5q-38 0 -38 -107h-22q0 60 15 97t48 37q21 0 31 -17t18 -49q7 -24 12.5 -35.5t16.5 -11.5q38 0 38 107h22q0 -59 -15 -96.5t-48 -37.5q-21 0 -31 17t-18 49q-7 24 -12.5 35.5zM235 179h-158l-32 -179h-33l125 667h38l125 -667h-33z
M82 209h148l-74 411z" />
    <glyph glyph-name="Adieresis" unicode="&#xc4;" horiz-adv-x="312" 
d="M75.5 745.5q-8.5 8.5 -8.5 19.5t8.5 19.5t19.5 8.5t19.5 -8.5t8.5 -19.5t-8.5 -19.5t-19.5 -8.5t-19.5 8.5zM197.5 745.5q-8.5 8.5 -8.5 19.5t8.5 19.5t19.5 8.5t19.5 -8.5t8.5 -19.5t-8.5 -19.5t-19.5 -8.5t-19.5 8.5zM235 179h-158l-32 -179h-33l125 667h38l125 -667
h-33zM82 209h148l-74 411z" />
    <glyph glyph-name="Aring" unicode="&#xc5;" horiz-adv-x="312" 
d="M102 825q23 23 55 23t54.5 -23t22.5 -55t-22.5 -55t-54.5 -23t-55 23t-23 55t23 55zM195.5 808.5q-15.5 15.5 -38.5 15.5q-22 0 -38 -15.5t-16 -38.5q0 -22 16 -38t38 -16q23 0 38.5 16t15.5 38q0 23 -15.5 38.5zM235 179h-158l-32 -179h-33l125 667h38l125 -667h-33z
M82 209h148l-74 411z" />
    <glyph glyph-name="AE" unicode="&#xc6;" horiz-adv-x="509" 
d="M246 179h-136l-55 -179h-33l211 667h223v-30h-178v-279h171v-30h-171v-298h178v-30h-210v179zM119 209h127v411z" />
    <glyph glyph-name="Ccedilla" unicode="&#xc7;" horiz-adv-x="357" 
d="M259 -62q15 -17 15 -45q0 -32 -23.5 -54t-57.5 -22q-37 0 -70 28l13 26q16 -15 28 -21t29 -6q21 0 36.5 13.5t15.5 35.5q0 19 -9 29.5t-24 10.5q-10 0 -16.5 -3.5t-14.5 -11.5l-21 12l22 59q-68 11 -98.5 104t-30.5 240q0 156 34.5 250.5t110.5 94.5q45 0 71 -28t42 -75
l-30 -12q-15 43 -33 64t-50 21q-56 0 -83 -87t-27 -228t27 -228t83 -87q35 0 54 27t32 78l30 -12q-27 -114 -103 -122l-17 -44q11 10 29 10q21 0 36 -17z" />
    <glyph glyph-name="Egrave" unicode="&#xc8;" horiz-adv-x="330" 
d="M88 867h41l78 -144h-24zM72 667h210v-30h-178v-279h171v-30h-171v-298h178v-30h-210v667z" />
    <glyph glyph-name="Eacute" unicode="&#xc9;" horiz-adv-x="330" 
d="M147 723l78 144h41l-95 -144h-24zM72 667h210v-30h-178v-279h171v-30h-171v-298h178v-30h-210v667z" />
    <glyph glyph-name="Ecircumflex" unicode="&#xca;" horiz-adv-x="330" 
d="M179 839l-63 -116h-23l68 144h36l71 -144h-23zM72 667h210v-30h-178v-279h171v-30h-171v-298h178v-30h-210v667z" />
    <glyph glyph-name="Edieresis" unicode="&#xcb;" horiz-adv-x="330" 
d="M97.5 745.5q-8.5 8.5 -8.5 19.5t8.5 19.5t19.5 8.5t19.5 -8.5t8.5 -19.5t-8.5 -19.5t-19.5 -8.5t-19.5 8.5zM219.5 745.5q-8.5 8.5 -8.5 19.5t8.5 19.5t19.5 8.5t19.5 -8.5t8.5 -19.5t-8.5 -19.5t-19.5 -8.5t-19.5 8.5zM72 667h210v-30h-178v-279h171v-30h-171v-298h178
v-30h-210v667z" />
    <glyph glyph-name="Igrave" unicode="&#xcc;" horiz-adv-x="176" 
d="M-1 867h41l78 -144h-24zM72 667h32v-667h-32v667z" />
    <glyph glyph-name="Iacute" unicode="&#xcd;" horiz-adv-x="176" 
d="M58 723l78 144h41l-95 -144h-24zM72 667h32v-667h-32v667z" />
    <glyph glyph-name="Icircumflex" unicode="&#xce;" horiz-adv-x="176" 
d="M88 839l-63 -116h-23l68 144h36l71 -144h-23zM72 667h32v-667h-32v667z" />
    <glyph glyph-name="Idieresis" unicode="&#xcf;" horiz-adv-x="176" 
d="M10.5 745.5q-8.5 8.5 -8.5 19.5t8.5 19.5t19.5 8.5t19.5 -8.5t8.5 -19.5t-8.5 -19.5t-19.5 -8.5t-19.5 8.5zM132.5 745.5q-8.5 8.5 -8.5 19.5t8.5 19.5t19.5 8.5t19.5 -8.5t8.5 -19.5t-8.5 -19.5t-19.5 -8.5t-19.5 8.5zM72 667h32v-667h-32v667z" />
    <glyph glyph-name="Eth" unicode="&#xd0;" horiz-adv-x="402" 
d="M308 577q41 -90 41 -244q0 -155 -41 -244t-127 -89h-93v317h-62v30h62v320h93q86 0 127 -90zM283 112q31 82 31 221q0 138 -31.5 221t-101.5 83h-61v-290h98v-30h-98v-287h61q71 0 102 82z" />
    <glyph glyph-name="Ntilde" unicode="&#xd1;" horiz-adv-x="395" 
d="M169.5 822.5q-5.5 11.5 -16.5 11.5q-38 0 -38 -107h-22q0 60 15 97t48 37q21 0 31 -17t18 -49q7 -24 12.5 -35.5t16.5 -11.5q38 0 38 107h22q0 -59 -15 -96.5t-48 -37.5q-21 0 -31 17t-18 49q-7 24 -12.5 35.5zM104 575v-575h-32v667h32l187 -569v569h32v-667h-32z" />
    <glyph glyph-name="Ograve" unicode="&#xd2;" 
d="M109 867h41l78 -144h-24zM87 582.5q34 95.5 111 95.5t111 -95.5t34 -249.5t-34 -249.5t-111 -95.5t-111 95.5t-34 249.5t34 249.5zM281.5 560q-26.5 88 -83.5 88t-83.5 -88t-26.5 -227q0 -138 26.5 -226.5t83.5 -88.5t83.5 88.5t26.5 226.5q0 139 -26.5 227z" />
    <glyph glyph-name="Oacute" unicode="&#xd3;" 
d="M168 723l78 144h41l-95 -144h-24zM87 582.5q34 95.5 111 95.5t111 -95.5t34 -249.5t-34 -249.5t-111 -95.5t-111 95.5t-34 249.5t34 249.5zM281.5 560q-26.5 88 -83.5 88t-83.5 -88t-26.5 -227q0 -138 26.5 -226.5t83.5 -88.5t83.5 88.5t26.5 226.5q0 139 -26.5 227z" />
    <glyph glyph-name="Ocircumflex" unicode="&#xd4;" 
d="M197 839l-63 -116h-23l68 144h36l71 -144h-23zM87 582.5q34 95.5 111 95.5t111 -95.5t34 -249.5t-34 -249.5t-111 -95.5t-111 95.5t-34 249.5t34 249.5zM281.5 560q-26.5 88 -83.5 88t-83.5 -88t-26.5 -227q0 -138 26.5 -226.5t83.5 -88.5t83.5 88.5t26.5 226.5
q0 139 -26.5 227z" />
    <glyph glyph-name="Otilde" unicode="&#xd5;" 
d="M174.5 822.5q-5.5 11.5 -16.5 11.5q-38 0 -38 -107h-22q0 60 15 97t48 37q21 0 31 -17t18 -49q7 -24 12.5 -35.5t16.5 -11.5q38 0 38 107h22q0 -59 -15 -96.5t-48 -37.5q-21 0 -31 17t-18 49q-7 24 -12.5 35.5zM87 582.5q34 95.5 111 95.5t111 -95.5t34 -249.5
t-34 -249.5t-111 -95.5t-111 95.5t-34 249.5t34 249.5zM281.5 560q-26.5 88 -83.5 88t-83.5 -88t-26.5 -227q0 -138 26.5 -226.5t83.5 -88.5t83.5 88.5t26.5 226.5q0 139 -26.5 227z" />
    <glyph glyph-name="Odieresis" unicode="&#xd6;" 
d="M116.5 745.5q-8.5 8.5 -8.5 19.5t8.5 19.5t19.5 8.5t19.5 -8.5t8.5 -19.5t-8.5 -19.5t-19.5 -8.5t-19.5 8.5zM238.5 745.5q-8.5 8.5 -8.5 19.5t8.5 19.5t19.5 8.5t19.5 -8.5t8.5 -19.5t-8.5 -19.5t-19.5 -8.5t-19.5 8.5zM87 582.5q34 95.5 111 95.5t111 -95.5t34 -249.5
t-34 -249.5t-111 -95.5t-111 95.5t-34 249.5t34 249.5zM281.5 560q-26.5 88 -83.5 88t-83.5 -88t-26.5 -227q0 -138 26.5 -226.5t83.5 -88.5t83.5 88.5t26.5 226.5q0 139 -26.5 227z" />
    <glyph glyph-name="multiply" unicode="&#xd7;" horiz-adv-x="374" 
d="M75 200l-22 22l113 112l-113 112l22 22l112 -113l112 113l22 -22l-113 -112l113 -112l-22 -22l-112 113z" />
    <glyph glyph-name="Oslash" unicode="&#xd8;" 
d="M343 333q0 -154 -34 -249.5t-111 -95.5q-54 0 -89 52l-14 -40h-33l28 77q-37 88 -37 256q0 154 34 249.5t111 95.5q54 0 89 -51l14 40h33l-28 -78q37 -88 37 -256zM108 129l164 457q-27 62 -74 62q-57 0 -83.5 -88t-26.5 -227q0 -124 20 -204zM281.5 106.5
q26.5 88.5 26.5 226.5q0 125 -20 205l-164 -457q27 -63 74 -63q57 0 83.5 88.5z" />
    <glyph glyph-name="Ugrave" unicode="&#xd9;" 
d="M109 867h41l78 -144h-24zM72 667h32v-513q0 -136 94 -136t94 136v513h32v-513q0 -166 -126 -166t-126 166v513z" />
    <glyph glyph-name="Uacute" unicode="&#xda;" 
d="M168 723l78 144h41l-95 -144h-24zM72 667h32v-513q0 -136 94 -136t94 136v513h32v-513q0 -166 -126 -166t-126 166v513z" />
    <glyph glyph-name="Ucircumflex" unicode="&#xdb;" 
d="M196 839l-63 -116h-23l68 144h36l71 -144h-23zM72 667h32v-513q0 -136 94 -136t94 136v513h32v-513q0 -166 -126 -166t-126 166v513z" />
    <glyph glyph-name="Udieresis" unicode="&#xdc;" 
d="M116.5 745.5q-8.5 8.5 -8.5 19.5t8.5 19.5t19.5 8.5t19.5 -8.5t8.5 -19.5t-8.5 -19.5t-19.5 -8.5t-19.5 8.5zM238.5 745.5q-8.5 8.5 -8.5 19.5t8.5 19.5t19.5 8.5t19.5 -8.5t8.5 -19.5t-8.5 -19.5t-19.5 -8.5t-19.5 8.5zM72 667h32v-513q0 -136 94 -136t94 136v513h32
v-513q0 -166 -126 -166t-126 166v513z" />
    <glyph glyph-name="Yacute" unicode="&#xdd;" horiz-adv-x="322" 
d="M131 723l78 144h41l-95 -144h-24zM145 289l-143 378h36l123 -339l125 339h34l-143 -378v-289h-32v289z" />
    <glyph glyph-name="Thorn" unicode="&#xde;" horiz-adv-x="341" 
d="M72 667h32v-129h68q67 0 101 -54t34 -136t-34 -135t-101 -53h-68v-160h-32v667zM246.5 464.5q-25.5 43.5 -75.5 43.5h-67v-318h67q51 0 76 43t25 115q0 73 -25.5 116.5z" />
    <glyph glyph-name="germandbls" unicode="&#xdf;" 
d="M209.5 2.5q-25.5 14.5 -48.5 44.5l22 24q17 -24 37 -40t50 -16t54.5 25.5t24.5 64.5q0 43 -21 70.5t-62 60.5q-31 24 -48.5 42t-30 44.5t-12.5 61.5q0 29 13.5 50t39.5 47q25 25 37.5 44t12.5 45q0 33 -23.5 56.5t-60.5 23.5q-38 0 -62 -27t-24 -79v-544h-30v544
q0 60 32.5 96.5t83.5 36.5t81.5 -30.5t30.5 -76.5q0 -34 -13 -55.5t-43 -51.5q-25 -25 -35 -40.5t-10 -38.5q0 -40 20 -66t61 -59q30 -24 48.5 -43t31.5 -46.5t13 -64.5q0 -50 -31.5 -83.5t-77.5 -33.5q-35 0 -60.5 14.5z" />
    <glyph glyph-name="agrave" unicode="&#xe0;" horiz-adv-x="351" 
d="M79 700h41l78 -144h-24zM256 70q-15 -37 -39.5 -59.5t-48.5 -22.5q-63 0 -92 69t-29 184q0 114 29.5 184t91.5 70q25 0 49.5 -21.5t38.5 -62.5v72h30v-483h-30v70zM256 366q-9 40 -34.5 71t-53.5 31q-48 0 -68 -63.5t-20 -163.5q0 -226 88 -226q28 0 53.5 30t34.5 70v251
z" />
    <glyph glyph-name="aacute" unicode="&#xe1;" horiz-adv-x="351" 
d="M138 556l78 144h41l-95 -144h-24zM256 70q-15 -37 -39.5 -59.5t-48.5 -22.5q-63 0 -92 69t-29 184q0 114 29.5 184t91.5 70q25 0 49.5 -21.5t38.5 -62.5v72h30v-483h-30v70zM256 366q-9 40 -34.5 71t-53.5 31q-48 0 -68 -63.5t-20 -163.5q0 -226 88 -226q28 0 53.5 30
t34.5 70v251z" />
    <glyph glyph-name="acircumflex" unicode="&#xe2;" horiz-adv-x="351" 
d="M177 672l-63 -116h-23l68 144h36l71 -144h-23zM256 70q-15 -37 -39.5 -59.5t-48.5 -22.5q-63 0 -92 69t-29 184q0 114 29.5 184t91.5 70q25 0 49.5 -21.5t38.5 -62.5v72h30v-483h-30v70zM256 366q-9 40 -34.5 71t-53.5 31q-48 0 -68 -63.5t-20 -163.5q0 -226 88 -226
q28 0 53.5 30t34.5 70v251z" />
    <glyph glyph-name="atilde" unicode="&#xe3;" horiz-adv-x="351" 
d="M152.5 655.5q-5.5 11.5 -16.5 11.5q-38 0 -38 -107h-22q0 60 15 97t48 37q21 0 31 -17t18 -49q7 -24 12.5 -35.5t16.5 -11.5q38 0 38 107h22q0 -59 -15 -96.5t-48 -37.5q-21 0 -31 17t-18 49q-7 24 -12.5 35.5zM256 70q-15 -37 -39.5 -59.5t-48.5 -22.5q-63 0 -92 69
t-29 184q0 114 29.5 184t91.5 70q25 0 49.5 -21.5t38.5 -62.5v72h30v-483h-30v70zM256 366q-9 40 -34.5 71t-53.5 31q-48 0 -68 -63.5t-20 -163.5q0 -226 88 -226q28 0 53.5 30t34.5 70v251z" />
    <glyph glyph-name="adieresis" unicode="&#xe4;" horiz-adv-x="351" 
d="M94.5 578.5q-8.5 8.5 -8.5 19.5t8.5 19.5t19.5 8.5t19.5 -8.5t8.5 -19.5t-8.5 -19.5t-19.5 -8.5t-19.5 8.5zM216.5 578.5q-8.5 8.5 -8.5 19.5t8.5 19.5t19.5 8.5t19.5 -8.5t8.5 -19.5t-8.5 -19.5t-19.5 -8.5t-19.5 8.5zM256 70q-15 -37 -39.5 -59.5t-48.5 -22.5
q-63 0 -92 69t-29 184q0 114 29.5 184t91.5 70q25 0 49.5 -21.5t38.5 -62.5v72h30v-483h-30v70zM256 366q-9 40 -34.5 71t-53.5 31q-48 0 -68 -63.5t-20 -163.5q0 -226 88 -226q28 0 53.5 30t34.5 70v251z" />
    <glyph glyph-name="aring" unicode="&#xe5;" horiz-adv-x="351" 
d="M124 686q23 23 55 23t54.5 -23t22.5 -55t-22.5 -55t-54.5 -23t-55 23t-23 55t23 55zM217.5 669.5q-15.5 15.5 -38.5 15.5q-22 0 -38 -15.5t-16 -38.5q0 -22 16 -38t38 -16q23 0 38.5 16t15.5 38q0 23 -15.5 38.5zM256 70q-15 -37 -39.5 -59.5t-48.5 -22.5q-63 0 -92 69
t-29 184q0 114 29.5 184t91.5 70q25 0 49.5 -21.5t38.5 -62.5v72h30v-483h-30v70zM256 366q-9 40 -34.5 71t-53.5 31q-48 0 -68 -63.5t-20 -163.5q0 -226 88 -226q28 0 53.5 30t34.5 70v251z" />
    <glyph glyph-name="ae" unicode="&#xe6;" horiz-adv-x="552" 
d="M256 0v70q-15 -37 -39.5 -59.5t-48.5 -22.5q-63 0 -92 69t-29 184q0 114 29.5 184t91.5 70q25 0 49.5 -21.5t38.5 -62.5v72h30v-77q13 43 35 66t61 23q68 0 98.5 -70.5t30.5 -182.5v-10h-225q0 -100 29.5 -158.5t83.5 -58.5q22 0 43 18t36 50l28 -14q-40 -81 -107 -81
q-87 0 -113 99v-87h-30zM256 366q-9 40 -34.5 71t-53.5 31q-48 0 -68 -63.5t-20 -163.5q0 -226 88 -226q28 0 53.5 30t34.5 70v251zM308 403.5q-22 -64.5 -22 -144.5h192q0 85 -22 147t-74 62t-74 -64.5z" />
    <glyph glyph-name="ccedilla" unicode="&#xe7;" horiz-adv-x="294" 
d="M236 1.5q-15 -10.5 -37 -12.5l-18 -46q11 10 29 10q21 0 36 -17t15 -45q0 -32 -23.5 -54t-57.5 -22q-37 0 -70 28l13 26q16 -15 28 -21t29 -6q21 0 36.5 13.5t15.5 35.5q0 19 -9 29.5t-24 10.5q-10 0 -16.5 -3.5t-14.5 -11.5l-21 12l22 61q-60 8 -91 78t-31 175
q0 111 34.5 182t101.5 71q28 0 46 -11t38 -34l-21 -21q-29 39 -64 39q-54 0 -78 -65t-24 -161t24 -161.5t78 -65.5q18 0 33.5 9t30.5 30l21 -21q-16 -21 -31 -31.5z" />
    <glyph glyph-name="egrave" unicode="&#xe8;" horiz-adv-x="346" 
d="M78.5 425q31.5 70 97.5 70q68 0 98.5 -70.5t30.5 -182.5v-10h-225q0 -100 29.5 -158.5t83.5 -58.5q22 0 43 18t36 50l28 -14q-40 -81 -107 -81q-75 0 -110.5 69.5t-35.5 184.5q0 113 31.5 183zM102 403.5q-22 -64.5 -22 -144.5h192q0 85 -22 147t-74 62t-74 -64.5z
M87 700h41l78 -144h-24z" />
    <glyph glyph-name="eacute" unicode="&#xe9;" horiz-adv-x="346" 
d="M78.5 425q31.5 70 97.5 70q68 0 98.5 -70.5t30.5 -182.5v-10h-225q0 -100 29.5 -158.5t83.5 -58.5q22 0 43 18t36 50l28 -14q-40 -81 -107 -81q-75 0 -110.5 69.5t-35.5 184.5q0 113 31.5 183zM102 403.5q-22 -64.5 -22 -144.5h192q0 85 -22 147t-74 62t-74 -64.5z
M146 556l78 144h41l-95 -144h-24z" />
    <glyph glyph-name="ecircumflex" unicode="&#xea;" horiz-adv-x="346" 
d="M78.5 425q31.5 70 97.5 70q68 0 98.5 -70.5t30.5 -182.5v-10h-225q0 -100 29.5 -158.5t83.5 -58.5q22 0 43 18t36 50l28 -14q-40 -81 -107 -81q-75 0 -110.5 69.5t-35.5 184.5q0 113 31.5 183zM102 403.5q-22 -64.5 -22 -144.5h192q0 85 -22 147t-74 62t-74 -64.5z
M176 672l-63 -116h-23l68 144h36l71 -144h-23z" />
    <glyph glyph-name="edieresis" unicode="&#xeb;" horiz-adv-x="346" 
d="M78.5 425q31.5 70 97.5 70q68 0 98.5 -70.5t30.5 -182.5v-10h-225q0 -100 29.5 -158.5t83.5 -58.5q22 0 43 18t36 50l28 -14q-40 -81 -107 -81q-75 0 -110.5 69.5t-35.5 184.5q0 113 31.5 183zM102 403.5q-22 -64.5 -22 -144.5h192q0 85 -22 147t-74 62t-74 -64.5z
M94.5 578.5q-8.5 8.5 -8.5 19.5t8.5 19.5t19.5 8.5t19.5 -8.5t8.5 -19.5t-8.5 -19.5t-19.5 -8.5t-19.5 8.5zM216.5 578.5q-8.5 8.5 -8.5 19.5t8.5 19.5t19.5 8.5t19.5 -8.5t8.5 -19.5t-8.5 -19.5t-19.5 -8.5t-19.5 8.5z" />
    <glyph glyph-name="igrave" unicode="&#xec;" horiz-adv-x="160" 
d="M-9 700h41l78 -144h-24zM65 483h30v-483h-30v483z" />
    <glyph glyph-name="iacute" unicode="&#xed;" horiz-adv-x="160" 
d="M50 556l78 144h41l-95 -144h-24zM65 483h30v-483h-30v483z" />
    <glyph glyph-name="icircumflex" unicode="&#xee;" horiz-adv-x="160" 
d="M79 672l-63 -116h-23l68 144h36l71 -144h-23zM65 483h30v-483h-30v483z" />
    <glyph glyph-name="idieresis" unicode="&#xef;" horiz-adv-x="160" 
d="M-0.5 578.5q-8.5 8.5 -8.5 19.5t8.5 19.5t19.5 8.5t19.5 -8.5t8.5 -19.5t-8.5 -19.5t-19.5 -8.5t-19.5 8.5zM121.5 578.5q-8.5 8.5 -8.5 19.5t8.5 19.5t19.5 8.5t19.5 -8.5t8.5 -19.5t-8.5 -19.5t-19.5 -8.5t-19.5 8.5zM65 483h30v-483h-30v483z" />
    <glyph glyph-name="eth" unicode="&#xf0;" horiz-adv-x="352" 
d="M233 585q35 -82 53.5 -170t18.5 -173q0 -111 -30.5 -182.5t-98.5 -71.5t-98.5 71.5t-30.5 182.5t30.5 182t98.5 71q50 0 75 -55q-14 55 -48 132l-100 -46l-12 25l101 45q-18 38 -36 66l29 16q19 -33 36 -69l73 33l11 -24zM250.5 80q21.5 65 21.5 162q0 96 -21.5 161
t-74.5 65t-74.5 -65t-21.5 -161t21.5 -161.5t74.5 -65.5t74.5 65z" />
    <glyph glyph-name="ntilde" unicode="&#xf1;" horiz-adv-x="342" 
d="M247 394q0 74 -53 74q-30 0 -57 -27.5t-42 -66.5v-374h-30v483h30v-72q18 37 45 60.5t58 23.5q41 0 60 -24.5t19 -76.5v-394h-30v394zM149.5 655.5q-5.5 11.5 -16.5 11.5q-38 0 -38 -107h-22q0 60 15 97t48 37q21 0 31 -17t18 -49q7 -24 12.5 -35.5t16.5 -11.5
q38 0 38 107h22q0 -59 -15 -96.5t-48 -37.5q-21 0 -31 17t-18 49q-7 24 -12.5 35.5z" />
    <glyph glyph-name="ograve" unicode="&#xf2;" horiz-adv-x="352" 
d="M77.5 59.5q-30.5 71.5 -30.5 182.5t30.5 182t98.5 71t98.5 -71t30.5 -182t-30.5 -182.5t-98.5 -71.5t-98.5 71.5zM250.5 80q21.5 65 21.5 162q0 96 -21.5 161t-74.5 65t-74.5 -65t-21.5 -161t21.5 -161.5t74.5 -65.5t74.5 65zM88 700h41l78 -144h-24z" />
    <glyph glyph-name="oacute" unicode="&#xf3;" horiz-adv-x="352" 
d="M77.5 59.5q-30.5 71.5 -30.5 182.5t30.5 182t98.5 71t98.5 -71t30.5 -182t-30.5 -182.5t-98.5 -71.5t-98.5 71.5zM250.5 80q21.5 65 21.5 162q0 96 -21.5 161t-74.5 65t-74.5 -65t-21.5 -161t21.5 -161.5t74.5 -65.5t74.5 65zM146 556l78 144h41l-95 -144h-24z" />
    <glyph glyph-name="ocircumflex" unicode="&#xf4;" horiz-adv-x="352" 
d="M77.5 59.5q-30.5 71.5 -30.5 182.5t30.5 182t98.5 71t98.5 -71t30.5 -182t-30.5 -182.5t-98.5 -71.5t-98.5 71.5zM250.5 80q21.5 65 21.5 162q0 96 -21.5 161t-74.5 65t-74.5 -65t-21.5 -161t21.5 -161.5t74.5 -65.5t74.5 65zM175 672l-63 -116h-23l68 144h36l71 -144
h-23z" />
    <glyph glyph-name="otilde" unicode="&#xf5;" horiz-adv-x="352" 
d="M77.5 59.5q-30.5 71.5 -30.5 182.5t30.5 182t98.5 71t98.5 -71t30.5 -182t-30.5 -182.5t-98.5 -71.5t-98.5 71.5zM250.5 80q21.5 65 21.5 162q0 96 -21.5 161t-74.5 65t-74.5 -65t-21.5 -161t21.5 -161.5t74.5 -65.5t74.5 65zM152.5 655.5q-5.5 11.5 -16.5 11.5
q-38 0 -38 -107h-22q0 60 15 97t48 37q21 0 31 -17t18 -49q7 -24 12.5 -35.5t16.5 -11.5q38 0 38 107h22q0 -59 -15 -96.5t-48 -37.5q-21 0 -31 17t-18 49q-7 24 -12.5 35.5z" />
    <glyph glyph-name="odieresis" unicode="&#xf6;" horiz-adv-x="352" 
d="M77.5 59.5q-30.5 71.5 -30.5 182.5t30.5 182t98.5 71t98.5 -71t30.5 -182t-30.5 -182.5t-98.5 -71.5t-98.5 71.5zM250.5 80q21.5 65 21.5 162q0 96 -21.5 161t-74.5 65t-74.5 -65t-21.5 -161t21.5 -161.5t74.5 -65.5t74.5 65zM96.5 578.5q-8.5 8.5 -8.5 19.5t8.5 19.5
t19.5 8.5t19.5 -8.5t8.5 -19.5t-8.5 -19.5t-19.5 -8.5t-19.5 8.5zM218.5 578.5q-8.5 8.5 -8.5 19.5t8.5 19.5t19.5 8.5t19.5 -8.5t8.5 -19.5t-8.5 -19.5t-19.5 -8.5t-19.5 8.5z" />
    <glyph glyph-name="divide" unicode="&#xf7;" horiz-adv-x="374" 
d="M166 452q-10 10 -10 23q0 14 10 23.5t23 9.5q14 0 23.5 -9.5t9.5 -23.5q0 -13 -9.5 -23t-23.5 -10q-13 0 -23 10zM29 352h316v-30h-316v30zM166 170q-10 10 -10 23q0 14 10 23.5t23 9.5q14 0 23.5 -9.5t9.5 -23.5q0 -13 -9.5 -23t-23.5 -10q-13 0 -23 10z" />
    <glyph glyph-name="oslash" unicode="&#xf8;" horiz-adv-x="352" 
d="M305 242q0 -111 -30.5 -182.5t-98.5 -71.5q-48 0 -78 39l-12 -27h-29l23 54q-33 66 -33 188q0 111 30.5 182t98.5 71q47 0 79 -38l11 26h29l-23 -53q33 -66 33 -188zM97 93l144 332q-25 43 -65 43q-53 0 -74.5 -65t-21.5 -161q0 -93 17 -149zM250.5 80q21.5 65 21.5 162
q0 93 -17 148l-144 -331q24 -44 65 -44q53 0 74.5 65z" />
    <glyph glyph-name="ugrave" unicode="&#xf9;" horiz-adv-x="342" 
d="M247 70q-18 -37 -44 -59.5t-59 -22.5q-42 0 -60.5 23.5t-18.5 77.5v394h30v-394q0 -74 53 -74q31 0 58 26.5t41 65.5v376h30v-483h-30v70zM82 700h41l78 -144h-24z" />
    <glyph glyph-name="uacute" unicode="&#xfa;" horiz-adv-x="342" 
d="M247 70q-18 -37 -44 -59.5t-59 -22.5q-42 0 -60.5 23.5t-18.5 77.5v394h30v-394q0 -74 53 -74q31 0 58 26.5t41 65.5v376h30v-483h-30v70zM141 556l78 144h41l-95 -144h-24z" />
    <glyph glyph-name="ucircumflex" unicode="&#xfb;" horiz-adv-x="342" 
d="M247 70q-18 -37 -44 -59.5t-59 -22.5q-42 0 -60.5 23.5t-18.5 77.5v394h30v-394q0 -74 53 -74q31 0 58 26.5t41 65.5v376h30v-483h-30v70zM171 672l-63 -116h-23l68 144h36l71 -144h-23z" />
    <glyph glyph-name="udieresis" unicode="&#xfc;" horiz-adv-x="342" 
d="M247 70q-18 -37 -44 -59.5t-59 -22.5q-42 0 -60.5 23.5t-18.5 77.5v394h30v-394q0 -74 53 -74q31 0 58 26.5t41 65.5v376h30v-483h-30v70zM92.5 578.5q-8.5 8.5 -8.5 19.5t8.5 19.5t19.5 8.5t19.5 -8.5t8.5 -19.5t-8.5 -19.5t-19.5 -8.5t-19.5 8.5zM214.5 578.5
q-8.5 8.5 -8.5 19.5t8.5 19.5t19.5 8.5t19.5 -8.5t8.5 -19.5t-8.5 -19.5t-19.5 -8.5t-19.5 8.5z" />
    <glyph glyph-name="yacute" unicode="&#xfd;" horiz-adv-x="342" 
d="M141 556l78 144h41l-95 -144h-24zM74 -123q37 -46 90 -46q38 0 60.5 32.5t22.5 93.5v113q-18 -37 -44 -59.5t-59 -22.5q-42 0 -60.5 23.5t-18.5 77.5v394h30v-394q0 -74 53 -74q31 0 58 26.5t41 65.5v376h30v-526q0 -71 -30 -112t-84 -41q-30 0 -59.5 12t-49.5 35z" />
    <glyph glyph-name="thorn" unicode="&#xfe;" horiz-adv-x="351" 
d="M95 -184h-30v851h30v-249q15 37 37.5 57t50.5 20q63 0 92 -69t29 -184q0 -114 -29.5 -184t-91.5 -70q-27 0 -50.5 19.5t-37.5 59.5v-251zM183 468q-28 0 -53.5 -30t-34.5 -70v-251q9 -40 35 -71t53 -31q48 0 68 63.5t20 163.5q0 226 -88 226z" />
    <glyph glyph-name="ydieresis" unicode="&#xff;" horiz-adv-x="342" 
d="M90.5 578.5q-8.5 8.5 -8.5 19.5t8.5 19.5t19.5 8.5t19.5 -8.5t8.5 -19.5t-8.5 -19.5t-19.5 -8.5t-19.5 8.5zM212.5 578.5q-8.5 8.5 -8.5 19.5t8.5 19.5t19.5 8.5t19.5 -8.5t8.5 -19.5t-8.5 -19.5t-19.5 -8.5t-19.5 8.5zM74 -123q37 -46 90 -46q38 0 60.5 32.5t22.5 93.5
v113q-18 -37 -44 -59.5t-59 -22.5q-42 0 -60.5 23.5t-18.5 77.5v394h30v-394q0 -74 53 -74q31 0 58 26.5t41 65.5v376h30v-526q0 -71 -30 -112t-84 -41q-30 0 -59.5 12t-49.5 35z" />
    <glyph glyph-name="dotlessi" unicode="&#x131;" horiz-adv-x="160" 
d="M65 483h30v-483h-30v483z" />
    <glyph glyph-name="OE" unicode="&#x152;" horiz-adv-x="561" 
d="M298 80q-19 -53 -46 -72.5t-54 -19.5q-78 0 -111.5 95.5t-33.5 249.5q0 155 33.5 249.5t111.5 94.5q67 0 100 -90v80h210v-30h-178v-279h171v-30h-171v-298h178v-30h-210v80zM260.5 608q-25.5 39 -62.5 39q-59 0 -84.5 -87t-25.5 -227t25.5 -227.5t84.5 -87.5
q36 0 62 39.5t38 109.5v333q-12 69 -37.5 108z" />
    <glyph glyph-name="oe" unicode="&#x153;" horiz-adv-x="571" 
d="M334.5 73.5q29.5 -58.5 83.5 -58.5q22 0 43 18t36 50l28 -14q-40 -81 -107 -81q-52 0 -82.5 33t-45.5 96q-28 -129 -114 -129q-68 0 -98.5 71.5t-30.5 182.5t30.5 182t98.5 71q84 0 113 -124q13 60 41.5 92t70.5 32q68 0 98.5 -70.5t30.5 -182.5v-10h-225
q0 -100 29.5 -158.5zM101.5 403q-21.5 -65 -21.5 -161t21.5 -162t74.5 -66t74.5 65.5t21.5 162.5q0 96 -21.5 161t-74.5 65t-74.5 -65zM475 406q-22 62 -74 62t-74 -64.5t-22 -144.5h192q0 85 -22 147z" />
    <glyph glyph-name="Scaron" unicode="&#x160;" horiz-adv-x="319" 
d="M82 867h23l66 -116l63 116h23l-68 -144h-36zM51 71q16 -24 42 -38.5t52 -14.5q43 0 73 35.5t30 93.5q0 42 -13.5 75.5t-34 58.5t-53.5 57q-34 34 -54 58.5t-34 58.5t-14 77q0 44 17.5 77t46 51t61.5 18q59 0 97 -41l-19 -25q-32 36 -78 36q-38 0 -65.5 -32t-27.5 -84
q0 -49 23 -84.5t70 -83.5q36 -38 57.5 -65t37 -65.5t15.5 -86.5q0 -68 -37.5 -113.5t-97.5 -45.5q-34 0 -64.5 15t-53.5 42z" />
    <glyph glyph-name="scaron" unicode="&#x161;" horiz-adv-x="278" 
d="M50 68q18 -27 38.5 -40t48.5 -13q32 0 55.5 25t23.5 65q0 43 -20.5 71t-62.5 63q-30 25 -48 43.5t-30.5 45.5t-12.5 62q0 46 30.5 75.5t74.5 29.5q57 0 93 -51l-20 -20q-28 44 -73 44q-34 0 -54.5 -22.5t-20.5 -55.5q0 -40 20 -67t60 -60q31 -25 49.5 -44.5t31.5 -48
t13 -65.5q0 -52 -32 -84.5t-77 -32.5q-35 0 -61 13.5t-48 45.5zM57 700h23l66 -116l63 116h23l-68 -144h-36z" />
    <glyph glyph-name="Ydieresis" unicode="&#x178;" horiz-adv-x="322" 
d="M84.5 745.5q-8.5 8.5 -8.5 19.5t8.5 19.5t19.5 8.5t19.5 -8.5t8.5 -19.5t-8.5 -19.5t-19.5 -8.5t-19.5 8.5zM206.5 745.5q-8.5 8.5 -8.5 19.5t8.5 19.5t19.5 8.5t19.5 -8.5t8.5 -19.5t-8.5 -19.5t-19.5 -8.5t-19.5 8.5zM145 289l-143 378h36l123 -339l125 339h34
l-143 -378v-289h-32v289z" />
    <glyph glyph-name="Zcaron" unicode="&#x17d;" horiz-adv-x="309" 
d="M68 867h23l66 -116l63 116h23l-68 -144h-36zM36 31l197 606h-197v30h230v-30l-198 -607h205v-30h-237v31z" />
    <glyph glyph-name="zcaron" unicode="&#x17e;" horiz-adv-x="275" 
d="M41 27l158 429h-158v27h189v-27l-156 -429h160v-27h-193v27zM48 700h23l66 -116l63 116h23l-68 -144h-36z" />
    <glyph glyph-name="florin" unicode="&#x192;" horiz-adv-x="335" 
d="M124 267h-50v30h57l65 293q8 39 35 63t63 24q35 0 51 -26l-24 -20q-9 16 -31 16q-49 0 -62 -60l-64 -290h100v-30h-107l-95 -428h-32z" />
    <glyph glyph-name="uni0237" unicode="&#x237;" horiz-adv-x="160" 
d="M12 -165q9 -4 20 -4q33 0 33 50v602h30v-602q0 -40 -17 -58.5t-45 -18.5q-16 0 -29 6z" />
    <glyph glyph-name="circumflex" unicode="&#x2c6;" horiz-adv-x="175" 
d="M86 672l-63 -116h-23l68 144h36l71 -144h-23z" />
    <glyph glyph-name="caron" unicode="&#x2c7;" horiz-adv-x="175" 
d="M0 700h23l66 -116l63 116h23l-68 -144h-36z" />
    <glyph glyph-name="ring" unicode="&#x2da;" horiz-adv-x="155" 
d="M23 686q23 23 55 23t54.5 -23t22.5 -55t-22.5 -55t-54.5 -23t-55 23t-23 55t23 55zM116.5 669.5q-15.5 15.5 -38.5 15.5q-22 0 -38 -15.5t-16 -38.5q0 -22 16 -38t38 -16q23 0 38.5 16t15.5 38q0 23 -15.5 38.5z" />
    <glyph glyph-name="tilde" unicode="&#x2dc;" horiz-adv-x="201" 
d="M76.5 655.5q-5.5 11.5 -16.5 11.5q-38 0 -38 -107h-22q0 60 15 97t48 37q21 0 31 -17t18 -49q7 -24 12.5 -35.5t16.5 -11.5q38 0 38 107h22q0 -59 -15 -96.5t-48 -37.5q-21 0 -31 17t-18 49q-7 24 -12.5 35.5z" />
    <glyph glyph-name="endash" unicode="&#x2013;" horiz-adv-x="460" 
d="M30 257h400v-30h-400v30z" />
    <glyph glyph-name="emdash" unicode="&#x2014;" horiz-adv-x="640" 
d="M30 257h580v-30h-580v30z" />
    <glyph glyph-name="quoteleft" unicode="&#x2018;" horiz-adv-x="208" 
d="M153 659q-24 -18 -38.5 -43.5t-14.5 -48.5l7 1q14 0 23 -9.5t9 -23.5q0 -13 -9 -22.5t-23 -9.5q-16 0 -27 14t-11 39q0 36 18 69.5t44 51.5z" />
    <glyph glyph-name="quoteright" unicode="&#x2019;" horiz-adv-x="208" 
d="M57 521q24 18 38.5 43.5t14.5 48.5l-7 -1q-14 0 -23 9.5t-9 23.5q0 13 9 22.5t23 9.5q16 0 27 -14t11 -39q0 -36 -18 -69.5t-44 -51.5z" />
    <glyph glyph-name="quotesinglbase" unicode="&#x201a;" horiz-adv-x="208" 
d="M57 -100q24 18 38.5 43.5t14.5 48.5l-7 -1q-14 0 -23 9.5t-9 23.5q0 13 9 22.5t23 9.5q16 0 27 -14t11 -39q0 -36 -18 -69.5t-44 -51.5z" />
    <glyph glyph-name="quotedblleft" unicode="&#x201c;" horiz-adv-x="331" 
d="M151 659q-24 -18 -38.5 -43.5t-14.5 -48.5l7 1q14 0 23 -9.5t9 -23.5q0 -13 -9 -22.5t-23 -9.5q-16 0 -27 14t-11 39q0 36 18 69.5t44 51.5zM274 659q-24 -18 -38.5 -43.5t-14.5 -48.5l7 1q14 0 23 -9.5t9 -23.5q0 -13 -9 -22.5t-23 -9.5q-16 0 -27 14t-11 39
q0 36 18 69.5t44 51.5z" />
    <glyph glyph-name="quotedblright" unicode="&#x201d;" horiz-adv-x="331" 
d="M57 521q24 18 38.5 43.5t14.5 48.5l-7 -1q-14 0 -23 9.5t-9 23.5q0 13 9 22.5t23 9.5q16 0 27 -14t11 -39q0 -36 -18 -69.5t-44 -51.5zM180 521q24 18 38.5 43.5t14.5 48.5l-7 -1q-14 0 -23 9.5t-9 23.5q0 13 9 22.5t23 9.5q16 0 27 -14t11 -39q0 -36 -18 -69.5
t-44 -51.5z" />
    <glyph glyph-name="quotedblbase" unicode="&#x201e;" horiz-adv-x="331" 
d="M57 -100q24 18 38.5 43.5t14.5 48.5l-7 -1q-14 0 -23 9.5t-9 23.5q0 13 9 22.5t23 9.5q16 0 27 -14t11 -39q0 -36 -18 -69.5t-44 -51.5zM180 -100q24 18 38.5 43.5t14.5 48.5l-7 -1q-14 0 -23 9.5t-9 23.5q0 13 9 22.5t23 9.5q16 0 27 -14t11 -39q0 -36 -18 -69.5
t-44 -51.5z" />
    <glyph glyph-name="dagger" unicode="&#x2020;" horiz-adv-x="251" 
d="M141 327h-31l4 216l-89 -4v27l89 -3l-4 114h31l-4 -114l89 3v-27l-89 4z" />
    <glyph glyph-name="daggerdbl" unicode="&#x2021;" horiz-adv-x="251" 
d="M137 543v-229l89 4v-27l-89 3l4 -114h-31l4 114l-89 -3v27l89 -4v229l-89 -4v27l89 -3l-4 114h31l-4 -114l89 3v-27z" />
    <glyph glyph-name="bullet" unicode="&#x2022;" horiz-adv-x="358" 
d="M111 173.5q-29 28.5 -29 68.5q0 41 29 69.5t69 28.5q41 0 69.5 -28.5t28.5 -69.5q0 -40 -29 -68.5t-69 -28.5t-69 28.5z" />
    <glyph glyph-name="ellipsis" unicode="&#x2026;" horiz-adv-x="624" 
d="M81 1q-10 10 -10 23t10 22.5t23 9.5t23 -9.5t10 -22.5t-9.5 -23t-23.5 -10q-13 0 -23 10zM289 1q-10 10 -10 23t10 22.5t23 9.5t23 -9.5t10 -22.5t-9.5 -23t-23.5 -10q-13 0 -23 10zM497 1q-10 10 -10 23t10 22.5t23 9.5t23 -9.5t10 -22.5t-9.5 -23t-23.5 -10
q-13 0 -23 10z" />
    <glyph glyph-name="perthousand" unicode="&#x2030;" horiz-adv-x="817" 
d="M67 396.5q-31 45.5 -31 116.5q0 72 31 118t82 46q52 0 82.5 -46t30.5 -118q0 -71 -30.5 -116.5t-82.5 -45.5q-51 0 -82 45.5zM127 0l269 667h33l-270 -667h-32zM90.5 610.5q-21.5 -39.5 -21.5 -97.5q0 -57 21.5 -96t58.5 -39t58.5 39t21.5 96q0 58 -21.5 97.5t-58.5 39.5
t-58.5 -39.5zM324 33.5q-31 45.5 -31 116.5q0 72 31 118t82 46t82 -46t31 -118q0 -71 -31 -116.5t-82 -45.5t-82 45.5zM586 33.5q-31 45.5 -31 116.5q0 72 31 118t82 46t82 -46t31 -118q0 -71 -31 -116.5t-82 -45.5t-82 45.5zM347.5 247.5q-21.5 -39.5 -21.5 -97.5
q0 -57 21.5 -96t58.5 -39t58.5 39t21.5 96q0 58 -21.5 97.5t-58.5 39.5t-58.5 -39.5zM609.5 247.5q-21.5 -39.5 -21.5 -97.5q0 -57 21.5 -96t58.5 -39t58.5 39t21.5 96q0 58 -21.5 97.5t-58.5 39.5t-58.5 -39.5z" />
    <glyph glyph-name="guilsinglleft" unicode="&#x2039;" horiz-adv-x="183" 
d="M30 243l90 177h33l-90 -177l90 -180h-33z" />
    <glyph glyph-name="guilsinglright" unicode="&#x203a;" horiz-adv-x="183" 
d="M30 63l90 180l-90 177h33l90 -177l-90 -180h-33z" />
    <glyph glyph-name="fraction" unicode="&#x2044;" horiz-adv-x="100" 
d="M-101 0l269 667h33l-270 -667h-32z" />
    <glyph glyph-name="Euro" unicode="&#x20ac;" horiz-adv-x="366" 
d="M261 45q19 27 32 78l30 -12q-29 -123 -116 -123q-65 0 -99.5 69.5t-42.5 189.5h-47v30h45q-1 18 -1 56q0 39 1 58h-45v30h47q9 119 43 188t99 69q45 0 71 -28t42 -75l-30 -12q-15 43 -33 64t-50 21q-47 0 -73.5 -61t-33.5 -166h137v-30h-139q-1 -19 -1 -58q0 -38 1 -56
h139v-30h-137q7 -106 33.5 -167.5t73.5 -61.5q35 0 54 27z" />
    <glyph glyph-name="trademark" unicode="&#x2122;" horiz-adv-x="374" 
d="M87 447h-28v194h-42v26h112v-26h-42v-194zM311 629l-55 -182h-8l-55 182v-182h-28v220h43l44 -157l44 157h43v-220h-28v182z" />
    <glyph glyph-name="minus" unicode="&#x2212;" horiz-adv-x="374" 
d="M29 352h316v-30h-316v30z" />
    <glyph glyph-name="glyph224" horiz-adv-x="190" 
d="M100 360l-62 -67l-18 19l83 88h27v-400h-30v360z" />
    <glyph glyph-name="glyph225" horiz-adv-x="240" 
d="M34 24q68 107 94.5 151.5t38.5 75t12 59.5q0 32 -16 51t-41 19q-46 0 -69 -54l-23 16q16 32 38 48t54 16q39 0 63.5 -26t24.5 -70q0 -30 -12.5 -62.5t-39.5 -78.5t-89 -143h142v-26h-177v24z" />
    <glyph glyph-name="glyph226" horiz-adv-x="240" 
d="M62 12q-24 19 -37 49l24 15q24 -57 69 -57q65 0 65 89q0 46 -20 66t-47 20q-20 0 -24 -1v27q5 -1 23 -1q28 0 46 20.5t18 58.5q0 41 -16 61.5t-44 20.5q-23 0 -38.5 -13.5t-27.5 -38.5l-24 15q14 29 38 46t52 17q40 0 65 -26.5t25 -78.5q0 -33 -16.5 -59.5t-42.5 -34.5
q25 -6 44.5 -33.5t19.5 -66.5q0 -51 -24 -82.5t-71 -31.5q-33 0 -57 19z" />
    <glyph glyph-name="glyph227" horiz-adv-x="240" 
d="M184 0h-29v113h-135v27l127 260h37v-261h38v-26h-38v-113zM47 139h108v222z" />
    </font>
</defs>
</svg>
